<svg width="859" height="805" viewBox="0 0 859 805" fill="none" xmlns="http://www.w3.org/2000/svg">
<g opacity="0.05" clip-path="url(#clip0)">
<g opacity="0.5">
<path opacity="0.5" d="M110.63 37.85H107.3V56.72H110.63V37.85Z" fill="#47E6B1"/>
<path opacity="0.5" d="M118.4 48.95V45.62H99.53V48.95H118.4Z" fill="#47E6B1"/>
</g>
<g opacity="0.5">
<path opacity="0.5" d="M814.99 769.53H811.66V788.4H814.99V769.53Z" fill="#47E6B1"/>
<path opacity="0.5" d="M822.76 780.63V777.3H803.89V780.63H822.76Z" fill="#47E6B1"/>
</g>
<g opacity="0.5">
<path opacity="0.5" d="M816.31 215.34H812.98V234.21H816.31V215.34Z" fill="#47E6B1"/>
<path opacity="0.5" d="M824.08 226.44V223.11H805.21V226.44H824.08Z" fill="#47E6B1"/>
</g>
<g opacity="0.5">
<path opacity="0.5" d="M850.31 45.34H846.98V64.21H850.31V45.34Z" fill="#47E6B1"/>
<path opacity="0.5" d="M858.08 56.44V53.11H839.21V56.44H858.08Z" fill="#47E6B1"/>
</g>
<g opacity="0.5">
<path opacity="0.5" d="M270.41 36.27H267.08V55.14H270.41V36.27Z" fill="#47E6B1"/>
<path opacity="0.5" d="M278.17 47.37V44.04H259.3V47.37H278.17Z" fill="#47E6B1"/>
</g>
<path opacity="0.5" d="M61.21 318.2C60.2929 317.8 59.5549 317.076 59.1363 316.167C58.7178 315.258 58.6479 314.227 58.94 313.27C58.9872 313.124 59.0174 312.973 59.03 312.82V312.82C59.0972 312.366 59.0063 311.903 58.7727 311.508C58.539 311.114 58.1767 310.811 57.7465 310.652C57.3164 310.492 56.8445 310.486 56.41 310.633C55.9755 310.78 55.6047 311.072 55.36 311.46V311.46C55.2682 311.584 55.191 311.718 55.13 311.86C54.7296 312.777 54.0062 313.515 53.0972 313.934C52.1882 314.352 51.1571 314.422 50.2 314.13C50.0539 314.083 49.9029 314.053 49.75 314.04V314.04C49.2962 313.973 48.8331 314.064 48.4383 314.297C48.0435 314.531 47.7411 314.893 47.5817 315.323C47.4223 315.754 47.4156 316.226 47.5628 316.66C47.7099 317.095 48.002 317.465 48.39 317.71C48.514 317.802 48.6482 317.879 48.79 317.94C49.7071 318.34 50.4451 319.064 50.8636 319.973C51.2822 320.882 51.3521 321.913 51.06 322.87C51.0128 323.016 50.9826 323.167 50.97 323.32V323.32C50.9028 323.774 50.9937 324.237 51.2273 324.632C51.461 325.026 51.8233 325.329 52.2535 325.488C52.6836 325.648 53.1555 325.654 53.59 325.507C54.0245 325.36 54.3952 325.068 54.64 324.68C54.7318 324.556 54.809 324.422 54.87 324.28C55.2704 323.363 55.9938 322.625 56.9028 322.206C57.8118 321.788 58.8429 321.718 59.8 322.01C59.946 322.057 60.097 322.087 60.25 322.1V322.1C60.7038 322.167 61.1669 322.076 61.5617 321.843C61.9565 321.609 62.2589 321.247 62.4183 320.817C62.5777 320.386 62.5844 319.914 62.4372 319.48C62.2901 319.045 61.998 318.675 61.61 318.43C61.486 318.338 61.3518 318.261 61.21 318.2Z" fill="#4D8AF0"/>
<path opacity="0.5" d="M122.69 696.54C121.773 696.14 121.035 695.416 120.616 694.507C120.198 693.598 120.128 692.567 120.42 691.61C120.467 691.464 120.497 691.313 120.51 691.16C120.577 690.706 120.486 690.243 120.253 689.848C120.019 689.454 119.657 689.151 119.227 688.992C118.796 688.832 118.324 688.826 117.89 688.973C117.455 689.12 117.085 689.412 116.84 689.8V689.8C116.748 689.924 116.671 690.058 116.61 690.2C116.21 691.117 115.486 691.855 114.577 692.274C113.668 692.692 112.637 692.762 111.68 692.47C111.534 692.423 111.383 692.393 111.23 692.38V692.38C110.776 692.313 110.313 692.404 109.918 692.637C109.524 692.871 109.221 693.233 109.062 693.663C108.902 694.094 108.896 694.566 109.043 695C109.19 695.435 109.482 695.805 109.87 696.05V696.05C109.994 696.142 110.128 696.219 110.27 696.28C111.187 696.68 111.925 697.404 112.344 698.313C112.762 699.222 112.832 700.253 112.54 701.21C112.493 701.356 112.463 701.507 112.45 701.66C112.383 702.114 112.474 702.577 112.707 702.972C112.941 703.366 113.303 703.669 113.733 703.828C114.164 703.988 114.636 703.994 115.07 703.847C115.505 703.7 115.875 703.408 116.12 703.02V703.02C116.212 702.896 116.289 702.762 116.35 702.62C116.75 701.703 117.474 700.965 118.383 700.546C119.292 700.128 120.323 700.058 121.28 700.35C121.426 700.397 121.577 700.427 121.73 700.44C122.184 700.507 122.647 700.416 123.042 700.183C123.436 699.949 123.739 699.587 123.898 699.157C124.058 698.726 124.064 698.254 123.917 697.82C123.77 697.385 123.478 697.015 123.09 696.77V696.77C122.966 696.678 122.832 696.601 122.69 696.54Z" fill="#4D8AF0"/>
<path opacity="0.5" d="M681.69 195.54C680.773 195.14 680.035 194.416 679.616 193.507C679.198 192.598 679.128 191.567 679.42 190.61C679.467 190.464 679.497 190.313 679.51 190.16V190.16C679.577 189.706 679.486 189.243 679.253 188.848C679.019 188.454 678.657 188.151 678.227 187.992C677.796 187.832 677.325 187.826 676.89 187.973C676.456 188.12 676.085 188.412 675.84 188.8C675.748 188.924 675.671 189.058 675.61 189.2C675.21 190.117 674.486 190.855 673.577 191.274C672.668 191.692 671.637 191.762 670.68 191.47C670.534 191.423 670.383 191.393 670.23 191.38V191.38C669.776 191.313 669.313 191.404 668.918 191.637C668.524 191.871 668.221 192.233 668.062 192.663C667.902 193.094 667.896 193.566 668.043 194C668.19 194.435 668.482 194.805 668.87 195.05V195.05C668.994 195.142 669.128 195.219 669.27 195.28C670.187 195.68 670.925 196.404 671.344 197.313C671.762 198.222 671.832 199.253 671.54 200.21C671.493 200.356 671.463 200.507 671.45 200.66C671.383 201.114 671.474 201.577 671.707 201.972C671.941 202.366 672.303 202.669 672.733 202.828C673.164 202.988 673.636 202.994 674.07 202.847C674.505 202.7 674.875 202.408 675.12 202.02V202.02C675.212 201.896 675.289 201.762 675.35 201.62C675.75 200.703 676.474 199.965 677.383 199.546C678.292 199.128 679.323 199.058 680.28 199.35C680.426 199.397 680.577 199.427 680.73 199.44C681.184 199.507 681.647 199.416 682.042 199.183C682.436 198.949 682.739 198.587 682.898 198.157C683.058 197.726 683.064 197.254 682.917 196.82C682.77 196.385 682.478 196.015 682.09 195.77V195.77C681.966 195.678 681.832 195.601 681.69 195.54V195.54Z" fill="#4D8AF0"/>
<path opacity="0.5" d="M674.24 285.93C673.323 285.53 672.585 284.806 672.166 283.897C671.748 282.988 671.678 281.957 671.97 281C672.017 280.854 672.047 280.703 672.06 280.55C672.127 280.096 672.036 279.633 671.803 279.238C671.569 278.844 671.207 278.541 670.777 278.382C670.346 278.222 669.875 278.216 669.44 278.363C669.005 278.51 668.635 278.802 668.39 279.19V279.19C668.298 279.314 668.221 279.448 668.16 279.59C667.76 280.507 667.036 281.245 666.127 281.664C665.218 282.082 664.187 282.152 663.23 281.86C663.084 281.813 662.933 281.783 662.78 281.77V281.77C662.326 281.703 661.863 281.794 661.468 282.027C661.074 282.261 660.771 282.623 660.612 283.053C660.452 283.484 660.446 283.956 660.593 284.39C660.74 284.825 661.032 285.195 661.42 285.44V285.44C661.544 285.532 661.678 285.609 661.82 285.67C662.737 286.07 663.475 286.794 663.894 287.703C664.312 288.612 664.382 289.643 664.09 290.6C664.043 290.746 664.013 290.897 664 291.05V291.05C663.933 291.504 664.024 291.967 664.257 292.362C664.491 292.756 664.853 293.059 665.284 293.218C665.714 293.378 666.186 293.384 666.62 293.237C667.055 293.09 667.425 292.798 667.67 292.41V292.41C667.762 292.286 667.839 292.152 667.9 292.01C668.3 291.093 669.024 290.355 669.933 289.936C670.842 289.518 671.873 289.448 672.83 289.74C672.976 289.787 673.127 289.817 673.28 289.83V289.83C673.734 289.897 674.197 289.806 674.592 289.573C674.987 289.339 675.289 288.977 675.448 288.547C675.608 288.116 675.614 287.644 675.467 287.21C675.32 286.775 675.028 286.405 674.64 286.16C674.516 286.068 674.382 285.991 674.24 285.93V285.93Z" fill="#4D8AF0"/>
<path opacity="0.5" d="M674.77 7.55998C673.853 7.15961 673.115 6.43615 672.696 5.52717C672.278 4.6182 672.208 3.58711 672.5 2.62998C672.547 2.48393 672.577 2.33294 672.59 2.17998V2.17998C672.657 1.72618 672.566 1.26306 672.333 0.868282C672.099 0.473502 671.737 0.171057 671.307 0.0116493C670.876 -0.147759 670.404 -0.154437 669.97 -0.00726777C669.535 0.139902 669.165 0.431973 668.92 0.81998V0.81998C668.828 0.943993 668.751 1.07822 668.69 1.21998C668.292 2.13672 667.57 2.87531 666.664 3.2956C665.757 3.71588 664.727 3.78861 663.77 3.49998C663.624 3.45281 663.473 3.42261 663.32 3.40998C662.866 3.34278 662.403 3.43364 662.008 3.66731C661.614 3.90099 661.311 4.26328 661.152 4.69345C660.992 5.12361 660.986 5.59551 661.133 6.03001C661.28 6.46452 661.572 6.83522 661.96 7.07998V7.07998C662.084 7.17182 662.218 7.249 662.36 7.30998C663.277 7.71035 664.015 8.43381 664.434 9.34278C664.852 10.2518 664.922 11.2828 664.63 12.24C664.583 12.386 664.553 12.537 664.54 12.69V12.69C664.473 13.1438 664.564 13.6069 664.797 14.0017C665.031 14.3965 665.393 14.6989 665.823 14.8583C666.254 15.0177 666.726 15.0244 667.16 14.8772C667.595 14.7301 667.965 14.438 668.21 14.05V14.05C668.302 13.926 668.379 13.7917 668.44 13.65C668.829 12.7307 669.541 11.9858 670.443 11.5564C671.344 11.127 672.371 11.0429 673.33 11.32C673.476 11.3671 673.627 11.3973 673.78 11.41C674.234 11.4772 674.697 11.3863 675.092 11.1526C675.487 10.919 675.789 10.5567 675.948 10.1265C676.108 9.69635 676.114 9.22445 675.967 8.78995C675.82 8.35544 675.528 7.98473 675.14 7.73998V7.73998C675.023 7.66742 674.899 7.6071 674.77 7.55998V7.55998Z" fill="#4D8AF0"/>
<path opacity="0.5" d="M842.93 464.6C842.013 464.2 841.275 463.476 840.856 462.567C840.438 461.658 840.368 460.627 840.66 459.67C840.707 459.524 840.737 459.373 840.75 459.22V459.22C840.817 458.766 840.726 458.303 840.493 457.908C840.259 457.514 839.897 457.211 839.467 457.052C839.036 456.892 838.565 456.886 838.13 457.033C837.695 457.18 837.325 457.472 837.08 457.86V457.86C836.988 457.984 836.911 458.118 836.85 458.26C836.45 459.177 835.726 459.915 834.817 460.334C833.908 460.752 832.877 460.822 831.92 460.53C831.774 460.483 831.623 460.453 831.47 460.44V460.44C831.016 460.373 830.553 460.464 830.158 460.697C829.764 460.931 829.461 461.293 829.302 461.723C829.142 462.154 829.136 462.626 829.283 463.06C829.43 463.495 829.722 463.865 830.11 464.11C830.234 464.202 830.368 464.279 830.51 464.34C831.436 464.743 832.18 465.475 832.598 466.395C833.015 467.315 833.077 468.357 832.77 469.32C832.723 469.466 832.693 469.617 832.68 469.77C832.613 470.224 832.704 470.687 832.937 471.082C833.171 471.476 833.533 471.779 833.963 471.938C834.394 472.098 834.866 472.104 835.3 471.957C835.735 471.81 836.105 471.518 836.35 471.13V471.13C836.442 471.006 836.519 470.872 836.58 470.73C836.98 469.813 837.704 469.075 838.613 468.656C839.522 468.238 840.553 468.168 841.51 468.46C841.656 468.507 841.807 468.537 841.96 468.55C842.414 468.617 842.877 468.526 843.272 468.293C843.667 468.059 843.969 467.697 844.128 467.267C844.288 466.836 844.294 466.364 844.147 465.93C844 465.495 843.708 465.125 843.32 464.88V464.88C843.202 464.771 843.071 464.677 842.93 464.6V464.6Z" fill="#4D8AF0"/>
<path opacity="0.5" d="M61.77 172.78C65.4482 172.78 68.43 169.798 68.43 166.12C68.43 162.442 65.4482 159.46 61.77 159.46C58.0918 159.46 55.11 162.442 55.11 166.12C55.11 169.798 58.0918 172.78 61.77 172.78Z" fill="#F55F44"/>
<path opacity="0.5" d="M12.94 651.09C16.6182 651.09 19.6 648.108 19.6 644.43C19.6 640.752 16.6182 637.77 12.94 637.77C9.26178 637.77 6.28 640.752 6.28 644.43C6.28 648.108 9.26178 651.09 12.94 651.09Z" fill="#F55F44"/>
<path opacity="0.5" d="M439.66 52.34C443.338 52.34 446.32 49.3582 446.32 45.68C446.32 42.0018 443.338 39.02 439.66 39.02C435.982 39.02 433 42.0018 433 45.68C433 49.3582 435.982 52.34 439.66 52.34Z" fill="#F55F44"/>
<path opacity="0.5" d="M506.66 179.34C510.338 179.34 513.32 176.358 513.32 172.68C513.32 169.002 510.338 166.02 506.66 166.02C502.982 166.02 500 169.002 500 172.68C500 176.358 502.982 179.34 506.66 179.34Z" fill="#F55F44"/>
<path opacity="0.5" d="M6.66 485.34C10.3382 485.34 13.32 482.358 13.32 478.68C13.32 475.002 10.3382 472.02 6.66 472.02C2.98178 472.02 0 475.002 0 478.68C0 482.358 2.98178 485.34 6.66 485.34Z" fill="#F55F44"/>
<path opacity="0.5" d="M267.5 162C271.178 162 274.16 159.018 274.16 155.34C274.16 151.662 271.178 148.68 267.5 148.68C263.822 148.68 260.84 151.662 260.84 155.34C260.84 159.018 263.822 162 267.5 162Z" fill="#47E6B1"/>
<path opacity="0.5" d="M725.6 604.41C729.278 604.41 732.26 601.428 732.26 597.75C732.26 594.072 729.278 591.09 725.6 591.09C721.922 591.09 718.94 594.072 718.94 597.75C718.94 601.428 721.922 604.41 725.6 604.41Z" fill="#F55F44"/>
<g opacity="0.5">
<path opacity="0.5" d="M544.54 214.07C531.64 201.13 512.83 195.98 491.54 199.57C471.65 202.93 451.75 213.7 435.54 229.9C430.837 234.632 426.885 240.054 423.82 245.98C420.835 239.857 416.914 234.237 412.2 229.32V229.32C396.2 212.85 376.53 201.74 356.7 198.03C335.51 194.03 316.62 198.89 303.5 211.61C290.38 224.33 284.95 243.06 288.25 264.32C291.33 284.32 301.77 304.32 317.77 320.81C351.35 355.45 418.36 341.92 421.2 341.32L422.04 341.15L424.62 341.74C427.45 342.38 494.21 357.06 528.37 323.01C544.62 306.82 555.45 286.95 558.88 267.07C562.53 245.84 557.44 227.01 544.54 214.07ZM409.85 321.32C393.66 323.5 353.3 326.46 333.26 305.79C320.38 292.5 311.95 276.6 309.55 261.04C307.35 246.84 310.55 234.77 318.49 227.04C321.605 224.048 325.33 221.766 329.41 220.35C336.09 217.98 344.04 217.54 352.73 219.17C368.21 222.06 383.83 230.98 396.73 244.27C416.77 264.99 412.53 305.24 409.85 321.32ZM537.63 263.39C534.96 278.91 526.26 294.65 513.15 307.72C492.75 328.05 452.45 324.39 436.31 321.93C433.9 305.77 430.37 265.46 450.76 245.13C463.87 232.06 479.64 223.42 495.17 220.79C503.89 219.32 511.83 219.89 518.47 222.37C522.524 223.857 526.208 226.204 529.27 229.25C537.1 237.14 540.07 249.26 537.63 263.41V263.39Z" fill="url(#paint0_linear)"/>
</g>
<path d="M427.68 336.97L421.3 338.32C418.59 338.89 354.47 351.83 322.3 318.69C307.02 302.93 296.99 283.74 294.04 264.69C290.89 244.31 296.04 226.38 308.62 214.21C321.2 202.04 339.26 197.43 359.53 201.21C378.53 204.76 397.37 215.39 412.64 231.15C444.76 264.3 429.82 327.98 429.16 330.67L427.68 336.97ZM333.47 222.58C329.566 223.934 326.001 226.118 323.02 228.98C315.4 236.36 312.36 247.91 314.46 261.5C316.76 276.39 324.82 291.6 337.15 304.32C356.32 324.1 394.94 321.32 410.43 319.18C413 303.77 417.04 265.25 397.87 245.47C385.54 232.75 370.59 224.22 355.78 221.47C347.48 219.89 339.87 220.32 333.47 222.58Z" fill="#D10E21"/>
<path d="M418.22 337.25L416.77 330.89C416.16 328.18 402.32 264.25 435.01 231.67C450.55 216.17 469.6 205.87 488.63 202.67C508.96 199.23 526.96 204.16 539.31 216.54C551.66 228.92 556.52 246.94 553.02 267.26C549.74 286.26 539.37 305.26 523.83 320.79C491.16 353.32 427.28 339.32 424.57 338.7L418.22 337.25ZM514.39 224.5C508.03 222.12 500.39 221.57 492.1 222.98C477.24 225.49 462.1 233.76 449.6 246.27C430.09 265.72 433.46 304.27 435.77 319.76C451.22 322.11 489.77 325.62 509.3 306.16C521.85 293.65 530.17 278.59 532.73 263.74C535.07 250.19 532.23 238.59 524.73 231.08C521.796 228.165 518.265 225.92 514.38 224.5H514.39Z" fill="#D10E21"/>
<g opacity="0.5">
<path opacity="0.5" d="M730.87 320.21H109.21V444.6H141.51V804.61H698.57V444.6H730.87V320.21Z" fill="url(#paint1_linear)"/>
</g>
<path d="M691.52 357.82H148.56V798.49H691.52V357.82Z" fill="#D10E21" fill-opacity="0.42"/>
<path d="M471.19 436.51H368.89V798.49H471.19V436.51Z" fill="#D10E21"/>
<path opacity="0.1" d="M691.52 334.21H148.56V444.38H691.52V334.21Z" fill="black"/>
<path d="M722.99 326.34H117.08V436.51H722.99V326.34Z" fill="#D10E21" fill-opacity="0.42"/>
<path d="M471.19 326.34H368.89V436.51H471.19V326.34Z" fill="#D10E21"/>
<path d="M782.69 336.24C780.77 330.69 759.77 346.32 759.77 346.32L754.93 346.03L745.62 337.41L752.12 330.91L697.53 284.12C696.073 282.871 694.372 281.94 692.534 281.388C690.697 280.835 688.764 280.672 686.86 280.91L641.49 286.58C641.3 283.98 639.69 280.89 637.43 277.74C632.78 270.11 622.98 261.48 619.35 258.41L613.82 221.1L618.52 214.05C617.651 213.812 616.796 213.525 615.96 213.19L616.96 211.7L616.59 211.6L617.06 211.06H617L628.77 197.48C629.639 196.473 630.083 195.169 630.01 193.841C629.938 192.514 629.353 191.266 628.38 190.36L602.17 170.48C602.966 168.583 603.348 166.537 603.29 164.48C603.49 160.48 601.73 156.48 595.79 153.54C592.116 151.79 588.268 150.433 584.31 149.49C577.786 147.81 570.932 147.91 564.46 149.78L564.12 149.38C556.05 140.16 545.48 153.38 545.07 153.93L503.73 199.93C502.602 201.712 502.185 203.853 502.563 205.928C502.941 208.003 504.086 209.86 505.77 211.13L527.65 227.54L527.58 227.68L528.82 228.61C527.88 230.45 526.63 231.68 524.96 231.86L528.31 233.54C527.782 233.908 527.17 234.139 526.53 234.21L541.87 241.88C541.87 249.88 542.69 286.35 555.66 304.27C556.991 306.462 558.571 308.492 560.37 310.32C560.37 310.32 561.47 309.72 563.49 308.75L565.81 313.38C568.354 318.472 572.436 322.634 577.478 325.276C582.52 327.918 588.265 328.906 593.9 328.1L665.9 317.81L665.14 320.1L665.55 320.04L642.21 390.04L646.07 391.33L646 391.47L646.54 391.7L641.69 400.87L626.41 412.62C626.41 412.62 671.07 435.01 675.77 431.48C680.47 427.95 659.31 412.67 659.31 412.67L658.13 407.97L663.27 397.12L667.58 398.56L702.19 329.32L703.37 326.97L726.77 356.26L733.37 349.66L734.08 350.38L734.14 350.32L743.29 359.58L749.92 377.68C749.92 377.68 784.64 341.78 782.69 336.24ZM601.01 201.63L600.55 201.1C596.869 205.452 592.375 209.046 587.32 211.68V207.83L587.58 207.6V205.93C591.061 202.727 593.579 198.616 594.849 194.059C596.119 189.503 596.092 184.682 594.77 180.14L609.96 191.83L601.01 201.63ZM549.4 158.23L549.03 157.86L549.4 158.22V158.23ZM537.25 182.71C537.15 183.923 537.11 185.15 537.13 186.39C537.104 188.185 537.204 189.979 537.43 191.76C538.21 197.98 540.43 203.06 545.03 205.48C549.03 207.58 551.66 207.48 553.34 206.03L553.52 206.19C553.659 208.625 554.292 211.007 555.38 213.19C546.811 211.402 538.628 208.107 531.21 203.46C531.21 203.46 531.21 203.77 531.27 204.33L524.98 198.04L537.25 182.71Z" fill="url(#paint2_linear)"/>
<path d="M651.99 378.3L641.71 397.71L657.69 404.56L667.97 382.87L651.99 378.3Z" fill="#FDA57D"/>
<path d="M657.69 404.56L658.83 409.13C658.83 409.13 679.38 423.97 674.83 427.4C670.28 430.83 626.83 409.13 626.83 409.13L641.67 397.71L657.69 404.56Z" fill="#333333"/>
<path opacity="0.1" d="M666.87 384.88L650.71 379.49L645.9 388.57L661.88 395.43L666.87 384.88Z" fill="black"/>
<path d="M725 341.94L740.43 357.56L751.76 344.37L734.15 328.06L725 341.94Z" fill="#FDA57D"/>
<path opacity="0.1" d="M734.78 328.82L725.63 342.7L731.48 348.63L743.35 336.76L734.78 328.82Z" fill="black"/>
<path d="M751.77 344.37L756.47 344.65C756.47 344.65 776.79 329.5 778.69 334.88C780.59 340.26 746.89 375.15 746.89 375.15L740.45 357.57L751.77 344.37Z" fill="#333333"/>
<path d="M605.43 227.54L629.15 200.1C629.99 199.121 630.419 197.856 630.349 196.569C630.278 195.281 629.712 194.07 628.77 193.19L577.16 154.05L570.88 163.83L610.88 194.62L593.88 213.24L605.43 227.54Z" fill="#FDA57D"/>
<path opacity="0.1" d="M602.71 203.63L594.41 212.73L605.94 227.04L617.83 213.32C612.026 211.474 606.811 208.132 602.71 203.63Z" fill="black"/>
<path d="M536.55 233.5L509.7 213.32C508.064 212.089 506.95 210.289 506.579 208.275C506.209 206.262 506.609 204.182 507.7 202.45L547.88 157.74L556.1 165.96L528.35 200.6L544.77 217.07L536.55 233.5Z" fill="#FDA57D"/>
<path opacity="0.1" d="M530.89 229.45L535.28 232.75L543.5 216.32L533.18 206C533.4 209.5 534.02 223.08 530.89 229.45Z" fill="black"/>
<path d="M666.87 313.25L642.22 387.19L666.87 395.41L707.95 313.25L675.09 305.04L666.87 313.25Z" fill="#D10E21"/>
<path opacity="0.1" d="M665.73 315.53L664.5 319.23L690.38 315.53L700.49 328.17L706.81 315.53L673.94 307.32L665.73 315.53Z" fill="black"/>
<path d="M547.84 157.83C547.84 157.83 558.37 144.26 566.36 153.39C574.35 162.52 553.77 163.66 553.77 163.66L547.84 157.83Z" fill="#FDA57D"/>
<path d="M560.06 296.82L568 312.71C570.473 317.653 574.438 321.693 579.334 324.257C584.23 326.822 589.809 327.781 595.28 327L691.51 313.25L724.38 354.32L749.03 329.67L696.03 284.22C694.616 283.007 692.964 282.103 691.18 281.565C689.396 281.028 687.519 280.869 685.67 281.1L560.06 296.82Z" fill="#D10E21"/>
<path opacity="0.1" d="M535.91 208.19C535.91 208.19 538.07 234.87 529.86 235.79L546.29 244.01C546.29 244.01 545.38 292.39 562.72 309.74C562.72 309.74 594.72 292.4 628.45 293.31C662.18 294.22 620.23 260.45 620.23 260.45L614.68 223.05L619.25 216.2C613.055 214.348 607.509 210.785 603.25 205.92C598.68 211.63 588.25 219.37 579.13 219.37H575.2C561.67 219.37 547.28 216.64 535.88 209.37L535.91 208.19Z" fill="black"/>
<path d="M534.39 205.91C534.39 205.91 536.55 232.59 528.34 233.51L544.77 241.72C544.77 241.72 543.86 290.1 561.2 307.45C561.2 307.45 593.2 290.11 626.93 291.02C660.66 291.93 618.71 258.16 618.71 258.16L613.16 220.76L617.73 213.91C611.535 212.058 605.989 208.495 601.73 203.63V203.63C597.16 209.34 586.73 217.08 577.61 217.08H573.68C559.79 217.083 546.174 213.215 534.36 205.91H534.39Z" fill="white"/>
<path d="M556.03 198.39V207.56C556.03 212.207 557.876 216.663 561.16 219.95L580.67 239.46L587.17 226.46C588.302 224.197 588.891 221.701 588.89 219.17V198.37L556.03 198.39Z" fill="#FDA57D"/>
<path opacity="0.1" d="M556.28 208.95C556.28 209.29 556.28 209.62 556.28 209.95C560.796 213.984 566.64 216.214 572.695 216.214C578.75 216.214 584.594 213.984 589.11 209.95V199.78H556.28V208.95Z" fill="black"/>
<path d="M572.46 214.82C586.074 214.82 597.11 203.784 597.11 190.17C597.11 176.556 586.074 165.52 572.46 165.52C558.846 165.52 547.81 176.556 547.81 190.17C547.81 203.784 558.846 214.82 572.46 214.82Z" fill="#FDA57D"/>
<path opacity="0.1" d="M556.03 183.22H597.11C597.11 183.22 613.54 166.79 597.11 158.57C593.542 156.868 589.805 155.548 585.96 154.63C560.96 148.29 537.22 168.96 540.43 194.54C541.19 200.54 543.36 205.54 547.81 207.86C565.16 217 556.03 183.22 556.03 183.22Z" fill="black"/>
<path d="M556.03 182.08H597.11C597.11 182.08 613.54 165.65 597.11 157.43C593.542 155.728 589.805 154.408 585.96 153.49C560.96 147.15 537.22 167.82 540.43 193.4C541.19 199.4 543.36 204.4 547.81 206.72C565.16 215.86 556.03 182.08 556.03 182.08Z" fill="#333333"/>
<path d="M557.23 194.49C558.489 194.49 559.51 192.699 559.51 190.49C559.51 188.281 558.489 186.49 557.23 186.49C555.971 186.49 554.95 188.281 554.95 190.49C554.95 192.699 555.971 194.49 557.23 194.49Z" fill="#FDA57D"/>
<path opacity="0.1" d="M544.67 241.3L545.81 237.87L549.23 240.16L544.67 241.3Z" fill="black"/>
<path opacity="0.1" d="M618.77 258.17C618.77 258.17 606.34 264.17 602.91 269.84Z" fill="black"/>
<path opacity="0.1" d="M613.17 220.75L612.03 224.17L609.74 220.75H613.17Z" fill="black"/>
<path d="M556.03 182.08H597.11C597.11 182.08 613.54 165.65 597.11 157.43C593.542 155.728 589.805 154.408 585.96 153.49C560.96 147.15 537.22 167.82 540.43 193.4C541.19 199.4 543.36 204.4 547.81 206.72C565.16 215.86 556.03 182.08 556.03 182.08Z" fill="#333333"/>
</g>
<defs>
<linearGradient id="paint0_linear" x1="423.67" y1="345.43" x2="423.67" y2="196.67" gradientUnits="userSpaceOnUse">
<stop stop-color="#808080" stop-opacity="0.25"/>
<stop offset="0.54" stop-color="#808080" stop-opacity="0.12"/>
<stop offset="1" stop-color="#808080" stop-opacity="0.1"/>
</linearGradient>
<linearGradient id="paint1_linear" x1="261231" y1="390073" x2="261231" y2="155430" gradientUnits="userSpaceOnUse">
<stop stop-color="#808080" stop-opacity="0.25"/>
<stop offset="0.54" stop-color="#808080" stop-opacity="0.12"/>
<stop offset="1" stop-color="#808080" stop-opacity="0.1"/>
</linearGradient>
<linearGradient id="paint2_linear" x1="228092" y1="134882" x2="228092" y2="53238.7" gradientUnits="userSpaceOnUse">
<stop stop-color="#808080" stop-opacity="0.25"/>
<stop offset="0.54" stop-color="#808080" stop-opacity="0.12"/>
<stop offset="1" stop-color="#808080" stop-opacity="0.1"/>
</linearGradient>
<clipPath id="clip0">
<rect width="858.07" height="804.61" fill="white"/>
</clipPath>
</defs>
</svg>
